<?xml version="1.0" encoding="UTF-8"?>
<svg id="_레이어_1" data-name="레이어_1" xmlns="http://www.w3.org/2000/svg" version="1.1" viewBox="0 0 1920 282.23">
  <!-- Generator: Adobe Illustrator 29.4.0, SVG Export Plug-In . SVG Version: 2.1.0 Build 152)  -->
  <defs>
    <style>
      .st0 {
        fill: #fff;
      }

      .st1 {
        fill: #2a2f89;
      }

      .st2 {
        fill: #666;
      }
    </style>
  </defs>
  <g>
    <path class="st1" d="M455.47.69l-144.78,124.85L165.9,0h289.58v.69Z"/>
    <path class="st1" d="M253.71,123.79V0h-123.78v126.32H0c0,17.65,3.29,34.17,9.94,49.61,6.63,15.45,15.68,28.88,27.16,40.34,11.47,11.46,24.85,20.51,40.16,27.15,15.34,6.65,31.79,9.96,49.42,9.96s34.14-3.31,49.58-9.96c15.44-6.64,28.9-15.69,40.36-27.15,11.46-11.46,20.49-24.89,27.17-40.34,6.11-14.32,9.39-29.57,9.83-45.77h.04v-1.34c.02-.85.05-1.65.05-2.51h-.05v-2.53h.05Z"/>
    <polygon class="st0" points="165.9 0 253.71 0 253.71 76.16 165.9 0"/>
  </g>
  <g>
    <path class="st2" d="M1392.57,246.43c0,4.59-.84,7.86-2.55,9.81-1.93,2.21-5.17,3.33-9.82,3.33-2.57,0-4.73-.24-6.49-.7-1.75-.48-3.17-1.3-4.28-2.48-1.11-1.2-1.84-2.57-2.21-4.16-.35-1.56-.53-3.62-.53-6.15v-1.48h10.56v4.04c0,2.5.76,3.74,2.25,3.74,1.35,0,2.02-1.24,2.02-3.7,0-1.82-.22-3.19-.62-4.11-.42-.93-1.26-1.78-2.6-2.57-1.3-.75-2.62-1.58-3.96-2.45-1.36-.84-2.54-1.65-3.55-2.42-1.56-1.14-2.63-2.27-3.24-3.41-.77-1.46-1.17-3.44-1.17-6.05,0-.97.03-1.95.04-2.97.03-.99.23-2.02.58-3.05.7-2.16,2.05-3.73,3.99-4.65,1.93-.93,4.55-1.4,7.9-1.4,2.9,0,5.28.35,7.15,1,1.88.69,3.31,1.81,4.28,3.4.68.99,1.07,1.99,1.21,3.02.14,1.04.2,2.42.2,4.11v1.78h-10.76v-3.3c0-2.01-.54-3.02-1.63-3.02-1.4,0-2.09,1.29-2.09,3.87,0,2.31,1.14,4.12,3.38,5.41l7.12,4.55c1.78,1.18,3.05,2.53,3.76,4.01.72,1.51,1.07,3.49,1.07,5.97Z"/>
    <path class="st2" d="M1423.41,259.32h-11.66v-3.87c-.77,1.5-1.65,2.51-2.68,3.09-1,.57-2.46.85-4.35.85-1.65,0-3.09-.2-4.3-.67-1.21-.42-2.07-1.11-2.59-2.04-.53-.91-.88-1.99-1.07-3.2-.22-1.23-.33-2.52-.33-3.93v-3.54c0-3.14.38-5.3,1.12-6.46.75-1.17,2.57-2.38,5.46-3.68l6.02-2.7c.94-.46,1.56-1.02,1.9-1.69.32-.63.51-1.74.51-3.34,0-3.67-.62-5.51-1.87-5.51-.62,0-1.11.21-1.46.62-.38.41-.56,1.34-.56,2.79v5.03h-11.13v-1.39c0-2.76.23-5,.65-6.64.45-1.66,1.4-3.21,2.92-4.65,1.14-1.07,2.43-1.76,3.89-2,1.47-.26,3.47-.38,6.01-.38,3.02,0,5.46.26,7.29.77,1.84.52,3.23,1.5,4.18,2.93.96,1.46,1.53,3.43,1.76,5.95.19,2.54.29,6.46.29,11.76v21.89ZM1411.46,249.63v-11.07c-1.67,1.4-2.68,2.41-3.05,3.09-.58,1.09-.84,2.83-.84,5.27v2.86c.15,1.72.84,2.58,2.1,2.58,1.18,0,1.79-.91,1.79-2.72Z"/>
    <path class="st2" d="M1444.08,223.66h-2.85v35.66h-11.97v-35.66h-2.48v-6.86h2.48c0-4.19.42-6.88,1.32-8.07,1.27-1.76,4.3-2.64,9.05-2.64h4.45v6.76c-2.59,0-4.08.15-4.47.47-.42.31-.62,1.46-.62,3.48h5.1v6.86Z"/>
    <path class="st2" d="M1473.59,244.23v1.39c0,2.06-.15,3.7-.39,4.92-.27,1.22-.88,2.59-1.92,4.13-1.18,1.86-2.55,3.12-4.07,3.76-1.52.63-3.63.96-6.31.96-3.5,0-6.36-.6-8.58-1.8-2.22-1.23-3.76-3.17-4.65-5.84-.39-1.2-.62-2.68-.69-4.43-.04-1.74-.08-3.04-.08-3.84v-12.71c0-1.79.08-3.35.21-4.64.11-1.28.41-2.56.87-3.79.89-2.31,2.35-4,4.38-5.05,2.03-1.07,4.61-1.6,7.7-1.6,2.68,0,4.91.38,6.71,1.13,1.83.74,3.28,1.97,4.43,3.66.91,1.4,1.55,3.1,1.87,5.09.33,2.04.52,4.34.52,6.97v5.81h-14.78v9.35c0,1.34.06,2.43.15,3.3.12.89.69,1.34,1.72,1.34.88,0,1.49-.39,1.82-1.17.34-.77.51-1.88.51-3.32v-5.27h10.58v1.63ZM1462.28,231.2v-3.09c.03-.64.03-1.07,0-1.32,0-1.56-.11-2.62-.31-3.19-.2-.56-.65-.84-1.32-.84-.77,0-1.26.23-1.49.68-.23.47-.35,1.3-.35,2.48v5.27h3.47Z"/>
    <path class="st2" d="M1579.49,259.29h-12.91l-2.4-3.54c-1.6,1.42-3.48,2.55-5.6,3.4-2.16.85-4.38,1.28-6.7,1.28-3.66,0-6.59-1.19-8.77-3.6-2.21-2.41-3.29-5.58-3.29-9.55,0-2.69.62-5.17,1.88-7.43,1.27-2.28,3.13-4.39,5.59-6.34-1.69-1.76-2.82-3.13-3.44-4.1-1.22-1.91-1.83-3.91-1.83-5.97,0-3.91,1.28-6.97,3.85-9.2,2.56-2.22,5.94-3.33,10.14-3.33,3.93,0,7.05,1.09,9.32,3.24,2.29,2.18,3.43,5.05,3.43,8.6,0,2.07-.62,4.22-1.85,6.44-1.23,2.25-2.72,4.04-4.47,5.39l6.32,8.26,7.79-6.18v10.49l-3.47,2.79,6.41,9.34ZM1559.49,249.23l-4.8-6.73c-.8.78-1.4,1.51-1.79,2.24-.39.73-.57,1.6-.57,2.64,0,1.22.29,2.24.86,2.99.56.79,1.29,1.18,2.16,1.18.62,0,1.48-.39,2.62-1.18.35-.25.87-.63,1.53-1.15ZM1558.3,221.17c0-.83-.23-1.56-.72-2.18-.43-.61-1.02-.93-1.75-.93-1.44,0-2.16.99-2.16,2.94,0,1.21.19,2.22.62,3.06.39.87.99,1.76,1.75,2.69,1.49-1.91,2.25-3.78,2.25-5.59Z"/>
    <path class="st2" d="M1619.4,241.34c-.03,1.24-.03,2.18,0,2.8,0,3.86-.31,6.65-.94,8.32-.59,1.68-1.6,3.17-3,4.45-1.08,1.04-2.32,1.71-3.67,2.03-1.37.3-3.17.45-5.38.45-3.15,0-5.71-.46-7.69-1.43-1.98-.95-3.47-2.56-4.44-4.82-.43-1.08-.73-2.53-.94-4.32-.2-1.82-.31-3.78-.31-5.87v-12.38c0-2.32.07-4.11.19-5.37.13-1.26.45-2.41.96-3.44.99-2.06,2.51-3.6,4.6-4.6,2.1-1,4.58-1.52,7.48-1.52,5.11,0,8.65,1.42,10.67,4.24,1.03,1.45,1.71,3.13,1.99,5.04.31,1.9.48,4.31.48,7.25h-10.8v-6.39c0-2.08-.63-3.08-1.87-3.08-.77,0-1.26.32-1.47.95-.22.65-.31,1.83-.31,3.52v20.46c0,1.6.15,2.78.46,3.55.31.78.87,1.17,1.72,1.17s1.44-.49,1.65-1.45c.23-.94.35-2.42.35-4.36v-5.2h10.26Z"/>
    <path class="st2" d="M1650.62,241.67c-.02.67-.02,1.17,0,1.48v3.56c-.12,1.96-.43,3.66-.93,5.11-.87,2.63-2.4,4.54-4.57,5.77-2.16,1.2-4.95,1.8-8.35,1.8h-1.31c-1.95,0-3.51-.1-4.65-.3-1.13-.2-2.25-.73-3.31-1.55-1.83-1.34-3.01-3.12-3.54-5.3-.53-2.21-.81-5.2-.81-9.09v-13.83c0-.88.08-1.82.23-2.79.51-3.72,1.87-6.48,4.08-8.31,2.17-1.84,5.19-2.77,9-2.77,6.96,0,11.4,2.56,13.31,7.59.35.86.58,2.03.69,3.48.11,1.45.16,2.94.16,4.48v10.67ZM1638.65,250.02v-23.37c0-1.74-.13-2.85-.39-3.31-.27-.48-.74-.71-1.41-.71-.88,0-1.4.45-1.55,1.36-.16.91-.24,1.8-.24,2.66v21.98c0,1.19.11,2.11.35,2.75.24.64.7.98,1.44.98,1.2,0,1.8-.79,1.8-2.34Z"/>
    <path class="st2" d="M1681.9,259.34h-11.96v-31.85c0-2.02-.07-3.33-.23-3.92-.15-.59-.64-.88-1.48-.88-.96,0-1.55.55-1.7,1.65-.16,1.11-.24,2.39-.24,3.83v31.17h-11.9v-43.64h12.21l-.31,4.04c1.75-2.96,4.29-4.43,7.58-4.43,1.25,0,2.32.12,3.22.35.89.23,1.73.72,2.43,1.45,1.08,1.13,1.75,2.51,2.01,4.13.26,1.63.36,4.17.36,7.56v30.54Z"/>
    <path class="st2" d="M1711.66,246.43c0,4.59-.84,7.86-2.53,9.81-1.91,2.21-5.18,3.33-9.84,3.33-2.56,0-4.72-.24-6.48-.7-1.73-.48-3.17-1.3-4.3-2.48-1.1-1.2-1.84-2.57-2.2-4.16-.35-1.56-.53-3.62-.53-6.15v-1.48h10.56v4.04c0,2.5.76,3.74,2.24,3.74,1.34,0,2.03-1.24,2.03-3.7,0-1.82-.23-3.19-.62-4.11-.43-.93-1.28-1.78-2.6-2.57-1.32-.75-2.63-1.58-3.96-2.45-1.36-.84-2.53-1.65-3.57-2.42-1.55-1.14-2.62-2.27-3.24-3.41-.77-1.46-1.15-3.44-1.15-6.05,0-.97.01-1.95.04-2.97.03-.99.22-2.02.58-3.05.7-2.16,2.05-3.73,3.97-4.65,1.94-.93,4.58-1.4,7.92-1.4,2.89,0,5.26.35,7.16,1,1.87.69,3.3,1.81,4.27,3.4.66.99,1.1,1.99,1.21,3.02.13,1.04.2,2.42.2,4.11v1.78h-10.77v-3.3c0-2.01-.54-3.02-1.64-3.02-1.37,0-2.07,1.29-2.07,3.87,0,2.31,1.12,4.12,3.36,5.41l7.13,4.55c1.78,1.18,3.05,2.53,3.75,4.01.72,1.51,1.07,3.49,1.07,5.97Z"/>
    <path class="st2" d="M1733.7,259.34h-4.8c-2.87,0-4.85-.15-5.86-.41-1.91-.45-3.32-1.56-4.26-3.32-.31-.62-.53-1.77-.61-3.43-.12-1.69-.16-3.82-.16-6.4v-22.13h-2.56v-6.86h2.56v-6.95h12.08v6.95h3.16v6.86h-3.16v23.26c0,2.81.11,4.39.38,4.81.24.42,1.33.63,3.22.63v6.99Z"/>
    <path class="st2" d="M1757.57,230.35h-.87c-3.01,0-4.85.95-5.59,2.85-.46,1.2-.69,4.16-.69,8.9v17.24h-11.96v-43.59h11.96l-.53,5.7c.93-2.05,1.88-3.55,2.86-4.48,1.23-1.13,2.84-1.79,4.81-2v15.37Z"/>
    <path class="st2" d="M1788.32,259.32h-12.2l.24-3.63c-.89,1.34-1.86,2.3-2.92,2.86-1.07.57-2.45.84-4.13.84h-.94c-1.23,0-2.26-.07-3.09-.26-.83-.19-1.59-.64-2.25-1.34-1.02-1.17-1.67-2.43-1.93-3.93-.26-1.48-.38-3.65-.38-6.54v-31.64h12.09v33.73c0,.97.11,1.71.33,2.2.24.49.65.75,1.27.75.94,0,1.51-.51,1.78-1.47.09-.43.16-1.14.16-2.18v-33.02h11.96v43.63Z"/>
    <path class="st2" d="M1817.98,241.34c-.04,1.24-.04,2.18,0,2.8,0,3.86-.31,6.65-.94,8.32-.62,1.68-1.63,3.17-3.02,4.45-1.07,1.04-2.29,1.71-3.67,2.03-1.36.3-3.16.45-5.38.45-3.13,0-5.68-.46-7.69-1.43-1.98-.95-3.44-2.56-4.45-4.82-.41-1.08-.72-2.53-.91-4.32-.23-1.82-.31-3.78-.31-5.87v-12.38c0-2.32.04-4.11.19-5.37.13-1.26.44-2.41.96-3.44.98-2.06,2.51-3.6,4.6-4.6,2.1-1,4.58-1.52,7.46-1.52,5.11,0,8.66,1.42,10.67,4.24,1.05,1.45,1.71,3.13,2.02,5.04.31,1.9.47,4.31.47,7.25h-10.83v-6.39c0-2.08-.62-3.08-1.87-3.08-.77,0-1.26.32-1.46.95-.2.65-.31,1.83-.31,3.52v20.46c0,1.6.16,2.78.48,3.55.3.78.88,1.17,1.71,1.17.88,0,1.44-.49,1.67-1.45.25-.94.35-2.42.35-4.36v-5.2h10.28Z"/>
    <path class="st2" d="M1840.01,259.34h-4.77c-2.9,0-4.85-.15-5.87-.41-1.93-.45-3.34-1.56-4.26-3.32-.32-.62-.53-1.77-.64-3.43-.09-1.69-.16-3.82-.16-6.4v-22.13h-2.54v-6.86h2.54v-6.95h12.12v6.95h3.13v6.86h-3.13v23.26c0,2.81.11,4.39.38,4.81.24.42,1.31.63,3.2.63v6.99Z"/>
    <path class="st2" d="M1857.04,212.92h-13v-6.83h13v6.83ZM1857.04,259.34h-13v-43.63h13v43.63Z"/>
    <path class="st2" d="M1888.68,241.67v5.03c-.08,1.96-.39,3.66-.91,5.11-.88,2.63-2.4,4.54-4.58,5.77-2.16,1.2-4.93,1.8-8.35,1.8h-1.32c-1.95,0-3.5-.1-4.62-.3-1.17-.2-2.25-.73-3.33-1.55-1.8-1.34-2.98-3.12-3.54-5.3-.53-2.21-.8-5.2-.8-9.09v-13.83c0-.88.08-1.82.22-2.79.54-3.72,1.9-6.48,4.06-8.31,2.21-1.84,5.21-2.77,9.03-2.77,6.97,0,11.39,2.56,13.3,7.59.35.86.6,2.03.69,3.48.11,1.45.15,2.94.15,4.48v10.67ZM1876.72,250.02v-23.37c0-1.74-.14-2.85-.39-3.31-.27-.48-.72-.71-1.41-.71-.87,0-1.4.45-1.56,1.36-.13.91-.22,1.8-.22,2.66v21.98c0,1.19.11,2.11.35,2.75.23.64.72.98,1.42.98,1.21,0,1.8-.79,1.8-2.34Z"/>
    <path class="st2" d="M1920,259.34h-11.99v-31.85c0-2.02-.06-3.33-.23-3.92-.15-.59-.63-.88-1.46-.88-.97,0-1.56.55-1.71,1.65-.16,1.11-.23,2.39-.23,3.83-.02.73-.02,1.28,0,1.71v29.46h-11.92v-43.64h12.23l-.31,4.04c1.76-2.96,4.27-4.43,7.58-4.43,1.24,0,2.31.12,3.22.35.88.23,1.71.72,2.41,1.45,1.1,1.13,1.76,2.51,2.03,4.13.24,1.63.38,4.17.38,7.56v30.54Z"/>
    <g>
      <path class="st2" d="M1494.32,259.41h-4.8c-2.89,0-4.84-.13-5.87-.39-1.91-.45-3.34-1.59-4.27-3.33-.31-.61-.51-1.75-.62-3.44-.08-1.68-.14-3.8-.14-6.39v-22.16h-2.6v-6.93h2.6v-6.98h12.09v6.98h3.19v6.93h-3.19v23.33c0,2.78.12,4.38.38,4.8.24.4,1.33.61,3.23.61v6.98Z"/>
      <path class="st2" d="M1525.54,215.59l-3.64,31.65c-.76,6.58-1.4,10.63-1.94,12.12-1.4,4.03-5.67,6.05-12.78,6.05h-7.61v-6.82h.69c1.52,0,2.51-.11,3.04-.3.53-.22.77-.73.77-1.57,0-.69-.23-2.17-.69-4.51l-6.9-36.61h11.48l4.08,29.55,2.03-29.55h11.47Z"/>
    </g>
  </g>
  <g>
    <path class="st2" d="M360.42,252.26v29.86h-14.25v-29.86h-39.35v-12.13h92.85v12.13h-39.25ZM385.96,233.48c-5.49-1.19-11.17-3.1-17.05-5.69-5.87-2.61-11.06-6.27-15.56-10.98-2.33,3.66-6.65,7.07-12.98,10.24-6.33,3.16-12.87,5.34-19.62,6.54l-8.23-10.13c6.68-.99,13.52-3.27,20.52-6.86,7-3.59,11.06-7.57,12.19-11.93h-28.07v-12.02h72.17v12.02h-27.85c1.83,4.86,6.28,8.95,13.35,12.29,7.07,3.34,13.52,5.51,19.36,6.49l-8.22,10.02Z"/>
    <path class="st2" d="M474.9,256.28v-24.49h-19.72c-2.39,2.89-5.45,5.22-9.18,7.02-3.73,1.79-7.88,2.69-12.45,2.69-7.88,0-14.37-2.5-19.47-7.49-5.1-4.99-7.64-10.9-7.64-17.72s2.54-12.73,7.64-17.72,11.59-7.49,19.47-7.49c4.15,0,7.94.74,11.39,2.22,3.45,1.47,6.36,3.44,8.76,5.9h21.2v-9.93h14.25v67.01h-14.25ZM420.35,280.01v-30.91h14.35v18.78h56.55v12.14h-70.9ZM424.15,207.05c-2.25,2.64-3.37,5.71-3.37,9.23s1.12,6.51,3.37,9.18c2.25,2.67,5.38,4.01,9.39,4.01s7.33-1.34,9.55-4.01c2.22-2.67,3.32-5.73,3.32-9.18s-1.11-6.59-3.32-9.23c-2.22-2.63-5.4-3.96-9.55-3.96s-7.15,1.33-9.39,3.96ZM474.9,211.32h-14.66c.14.78.27,1.59.37,2.43.11.85.16,1.69.16,2.53,0,.57-.02,1.13-.05,1.68-.03.57-.13,1.13-.27,1.7h14.45v-8.34Z"/>
    <path class="st2" d="M553.61,277.9v-41.25h-8.02c-.56,9.56-2.81,17-6.75,22.31-3.94,5.31-8.91,7.97-14.88,7.97-6.39,0-11.6-3.08-15.61-9.23-4.01-6.16-6.02-14.72-6.02-25.69s2.01-19.38,6.02-25.64c4.01-6.26,9.22-9.38,15.61-9.38,5.56,0,10.22,2.33,13.98,7,3.77,4.69,6.17,11.07,7.23,19.16h8.44v-31.76h13.72v86.51h-13.72ZM529.98,215.91c-1.48-4.25-3.45-6.39-5.91-6.39-2.61,0-4.63,2.11-6.07,6.33-1.44,4.21-2.17,9.56-2.17,16.03s.72,11.66,2.17,15.99c1.44,4.33,3.46,6.49,6.07,6.49,2.46,0,4.43-2.15,5.91-6.44,1.48-4.29,2.22-9.63,2.22-16.04s-.74-11.72-2.22-15.98ZM573.56,282.12v-92.85h13.61v92.85h-13.61Z"/>
    <path class="st2" d="M594.87,271.68v-12.04h92.85v12.04h-92.85ZM674.63,247.3c-4.92-1.41-10.81-4.36-17.67-8.87-6.85-4.5-12.08-9.42-15.67-14.77-3.23,5.2-8.19,10.03-14.87,14.46-6.68,4.43-12.87,7.45-18.57,9.07l-9.18-10.12c9.01-2.89,17.06-7.28,24.16-13.19,7.1-5.92,10.66-13.01,10.66-21.32v-8.96h15.62v8.96c0,8.31,3.39,15.3,10.18,21.01,6.78,5.7,14.82,10.2,24.1,13.5l-8.76,10.24Z"/>
    <path class="st2" d="M730.6,233.59c-4.4,4.43-9.75,6.65-16.09,6.65s-11.58-2.24-15.98-6.71c-4.4-4.47-6.6-10.14-6.6-17.05s2.2-12.64,6.6-17.04c4.39-4.4,9.72-6.59,15.98-6.59s11.78,2.18,16.14,6.54c4.36,4.36,6.54,10.06,6.54,17.09s-2.2,12.66-6.6,17.11ZM720.85,208.21c-1.76-2.01-3.87-3-6.34-3s-4.47,1-6.23,3c-1.76,2.01-2.64,4.77-2.64,8.28s.9,6.3,2.69,8.35c1.79,2.04,3.85,3.06,6.17,3.06,2.46,0,4.58-1.02,6.34-3.06,1.75-2.04,2.64-4.82,2.64-8.35s-.88-6.27-2.64-8.28ZM708.08,280.01v-30.28h14.25v18.14h57.71v12.14h-71.95ZM764.31,256.79v-30.48h-7.38v28.38h-13.61v-63.84h13.61v22.06h7.38v-23.64h13.61v67.53h-13.61Z"/>
    <path class="st2" d="M847.46,264.4c-2.32-2.05-4.59-4.4-6.81-7.08-2.22-2.67-4.27-6.11-6.17-10.34-.92,2.82-2.64,5.89-5.17,9.23-2.53,3.34-5.25,6.28-8.13,8.81-2.6-2.03-5.02-4.5-7.28-7.39-2.25-2.89-4.4-6.42-6.43-10.65-1.34,3.59-3.24,6.93-5.7,10.03-2.46,3.09-5.06,5.76-7.81,8.01l-9.39-10.02c4.58-3.66,8.39-8.45,11.45-14.41,3.06-5.94,4.59-14.99,4.59-27.17v-18.99h13.82v18.99c0,9.99.72,17.17,2.17,21.53,1.44,4.36,2.9,7.91,4.38,10.65,1.83-2.74,3.39-6.42,4.7-11.02,1.3-4.6,1.95-11.66,1.95-21.16v-18.99h13.82v18.99c0,9.5,1.01,17.24,3.06,23.22,2.04,5.98,5.74,11.46,11.08,16.45l-8.12,11.3ZM860.86,282.12v-92.85h13.29v92.85h-13.29Z"/>
    <path class="st2" d="M957.61,250.89v31.24h-12.55v-31.24h-39.99v-10.44h92.85v10.44h-40.31ZM963.52,209.95c2.04,2.03,4.47,3.97,7.28,5.8,3.52,2.18,7.44,4.07,11.76,5.65,4.33,1.58,7.75,2.66,10.29,3.22l-7.27,8.76c-2.53-.56-5.65-1.48-9.34-2.74-3.69-1.27-7.4-3-11.13-5.18-3.17-1.83-5.87-3.64-8.13-5.44-2.25-1.78-4-3.57-5.27-5.32-1.34,1.75-3.15,3.54-5.44,5.32-2.28,1.8-5.01,3.61-8.18,5.44-3.73,2.18-7.44,3.9-11.13,5.18-3.7,1.25-6.81,2.18-9.34,2.74l-7.28-8.76c2.53-.56,5.96-1.64,10.29-3.22,4.33-1.58,8.25-3.47,11.76-5.65,2.89-1.82,5.33-3.76,7.33-5.8,2.01-2.04,3.4-4.3,4.17-6.76h-28.39v-10.44h71.75v10.44h-28.06c.84,2.46,2.28,4.72,4.32,6.76Z"/>
    <path class="st2" d="M1057.22,241.18c-1.97-.77-4.3-1.93-6.96-3.49-2.67-1.54-5.17-3.3-7.49-5.27-1.91-1.62-3.61-3.15-5.12-4.59-1.52-1.44-2.98-3.22-4.38-5.33-1.2,2.18-2.63,4.26-4.28,6.22-1.66,1.97-3.57,3.9-5.76,5.8-2.6,2.25-4.87,4.05-6.8,5.38-1.94,1.34-3.99,2.61-6.18,3.81l-8.97-8.44c2.68-1.41,5.63-3.25,8.87-5.54,3.23-2.29,6.15-4.9,8.75-7.86,2.88-3.24,4.93-6.59,6.12-10.08,1.19-3.49,1.79-7.26,1.79-11.35v-8.65h12.97v8.65c0,4.08.67,7.81,2.01,11.19,1.33,3.37,3.24,6.4,5.69,9.07,2.82,2.82,5.68,5.15,8.6,7.02,2.92,1.86,5.79,3.32,8.59,4.38l-7.49,9.07ZM1074.42,282.23v-22.37h-57.19v-10.86h69.32v33.23h-12.13ZM1074.94,244.77v-55.5h12.25v55.5h-12.25Z"/>
    <path class="st2" d="M1148.27,267.77c-8.37.57-17.27.85-26.68.85h-21.63v-10.86h27.42v-7.17c-5.27-.84-9.63-2.63-13.08-5.33-3.45-2.7-5.17-5.89-5.17-9.55,0-4.35,2.35-8.02,7.07-10.98,4.71-2.95,10.48-4.43,17.3-4.43,7.38,0,13.29,1.5,17.73,4.49,4.43,2.99,6.65,6.63,6.65,10.91,0,3.52-1.64,6.61-4.91,9.28-3.27,2.68-7.4,4.43-12.4,5.28v7.07c1.69,0,5.7-.21,12.03-.63,6.34-.41,11.22-.88,14.66-1.38v10.87c-4.28.5-10.62,1.02-18.99,1.58ZM1105.23,217.02v-10.24h55.92v10.24h-55.92ZM1118.2,201.51v-9.93h29.76v9.93h-29.76ZM1142.26,231.22c-2.25-1.16-5.17-1.75-8.76-1.75-3.24,0-6.01.59-8.34,1.75-2.32,1.16-3.48,2.65-3.48,4.48s1.16,3.19,3.48,4.27c2.33,1.09,5.1,1.63,8.34,1.63s6.24-.54,8.6-1.63c2.35-1.09,3.53-2.51,3.53-4.27s-1.13-3.32-3.37-4.48ZM1170.95,282.12v-92.85h12.13v92.85h-12.13Z"/>
    <path class="st2" d="M1246.93,264.29c-2.18-1.26-4.54-2.79-7.08-4.59-2.53-1.79-5.13-4.12-7.8-7.01-2.05-2.25-3.76-4.41-5.17-6.49-1.41-2.08-2.68-4.2-3.79-6.38-1.13,2.61-2.53,5.05-4.22,7.33-1.69,2.29-3.76,4.85-6.22,7.65-2.04,2.33-4.15,4.33-6.33,6.02-2.18,1.68-4.58,3.41-7.18,5.17l-9.28-7.92c4.15-2.6,7.89-5.45,11.24-8.54,3.33-3.1,6.16-6.58,8.49-10.45,2.67-4.5,4.5-9.19,5.49-14.08.98-4.89,1.48-9.98,1.48-15.25v-15.3h12.77v15.3c0,4.01.52,8.99,1.58,14.93,1.06,5.95,3.2,11.1,6.43,15.46,2.89,3.81,5.8,6.91,8.76,9.34,2.95,2.44,5.87,4.46,8.76,6.07l-7.91,8.76ZM1274.25,236.86v45.27h-12.23v-92.85h12.23v36.31h13.4v11.28h-13.4Z"/>
  </g>
</svg>